<svg xmlns="http://www.w3.org/2000/svg" width="256" height="256" viewBox="0 0 256 256">
  <defs>
    <linearGradient id="g1" x1="0" y1="0" x2="1" y2="1">
      <stop offset="0" stop-color="#F4A58C"/>
      <stop offset="1" stop-color="#EBC57E"/>
    </linearGradient>
    <linearGradient id="g2" x1="0" y1="0" x2="1" y2="1">
      <stop offset="0" stop-color="#AEDCE4" stop-opacity="0.9"/>
      <stop offset="0.7" stop-color="#AEDCE4" stop-opacity="0"/>
    </linearGradient>
  </defs>
  <g transform="translate(128,128) rotate(45) scale(1.5) translate(-50,-50)">
    <path d="M0,100 L0,50 A50,50 0 0 1 50,0 A50,50 0 0 1 100,50 A50,50 0 0 1 50,100 Z" fill="url(#g1)"/>
    <path d="M0,100 L0,50 A50,50 0 0 1 50,0 A50,50 0 0 1 100,50 A50,50 0 0 1 50,100 Z" fill="url(#g2)" style="mix-blend-mode:screen"/>
  </g>
</svg>